<svg xmlns="http://www.w3.org/2000/svg" width="768.787" height="427.666" viewBox="0 0 768.787 427.666"><g transform="translate(0)"><ellipse cx="43.907" cy="35.185" rx="43.907" ry="35.185" transform="translate(101.942 21.441)" fill="#ff6584"/><path d="M437.777,249.677c0,83.02-61.59,112.007-137.564,112.007S162.649,332.7,162.649,249.677,300.213,61.042,300.213,61.042,437.777,166.656,437.777,249.677Z" transform="translate(-78.302 -61.042)" fill="#f2f2f2"/><path d="M290.855,287.942l1.409-69.48L350.9,132.505l-58.412,75.058.633-31.241,40.41-62.189-40.242,53.921h0l1.139-56.189L337.7,62.355,294.6,103.03,295.315,0l-4.473,136.393.368-5.627L247.216,76.8,290.5,141.567l-4.1,62.753-.122-1.665-50.718-56.788,50.565,62.672-.512,7.848-.092.118.042.644-10.4,159.21h13.9l1.667-82.235,50.44-62.519Z" transform="translate(-73.955)" fill="#3f3d56"/><path d="M1057.242,339.558c0,67.956-50.414,91.683-112.6,91.683s-112.6-23.728-112.6-91.683,112.6-154.406,112.6-154.406S1057.242,271.6,1057.242,339.558Z" transform="translate(-288.455 -116.921)" fill="#f2f2f2"/><path d="M929.771,359.8l1.153-56.873,47.995-70.36L931.105,294.01l.519-25.572,33.08-50.9L931.761,261.67h0l.932-45.993,35.42-40.527L932.84,208.445l.583-84.335-3.661,111.644.3-4.605L894.05,186.977l35.435,53.013-3.355,51.366-.1-1.363-41.515-46.484,41.39,51.3-.42,6.424-.075.1.034.527-8.513,130.32H928.3l1.365-67.313,41.285-51.174Z" transform="translate(-277.691 -55.879)" fill="#3f3d56"/><ellipse cx="380.479" cy="15.412" rx="380.479" ry="15.412" transform="translate(0 358.687)" fill="#3f3d56"/><ellipse cx="65.167" cy="2.64" rx="65.167" ry="2.64" transform="translate(547.097 396.924)" fill="#3f3d56"/><ellipse cx="65.167" cy="2.64" rx="65.167" ry="2.64" transform="translate(311.283 422.387)" fill="#3f3d56"/><ellipse cx="148.883" cy="6.031" rx="148.883" ry="6.031" transform="translate(48.662 397.646)" fill="#3f3d56"/><ellipse cx="54.198" cy="43.431" rx="54.198" ry="43.431" transform="translate(12.406 267.881)" fill="#2f2e41"/><path d="M.133.1,16.6.057,16.528,23.7.064,23.736Z" transform="translate(41.277 345.063) rotate(0.675)" fill="#2f2e41"/><path d="M.133.1,16.6.057,16.528,23.7.064,23.736Z" transform="translate(74.205 345.375) rotate(0.675)" fill="#2f2e41"/><path d="M4.045-.011C6.322,0,8.182,6.144,8.2,13.722S6.386,27.437,4.109,27.431-.029,21.276-.047,13.7,1.767-.017,4.045-.011Z" transform="translate(41.018 373.118) rotate(-89.325)" fill="#2f2e41"/><path d="M4.045-.011C6.322,0,8.182,6.144,8.2,13.722S6.386,27.437,4.109,27.431-.029,21.276-.047,13.7,1.767-.017,4.045-.011Z" transform="translate(73.955 372.879) rotate(-89.325)" fill="#2f2e41"/><ellipse cx="18.523" cy="14.843" rx="18.523" ry="14.843" transform="translate(49.615 285.487)" fill="#fff"/><ellipse cx="6.174" cy="4.948" rx="6.174" ry="4.948" transform="translate(61.964 295.383)" fill="#3f3d56"/><path d="M60.7,523.53c-4.145-15.746,10.076-31.482,31.765-35.148s42.63,6.126,46.775,21.871-10.276,21.4-31.964,25.068S64.842,539.276,60.7,523.53Z" transform="translate(-46.069 -253.102)" fill="#6c63ff"/><path d="M211.378,615.041c0,30.279-22.461,40.851-50.171,40.851q-.963,0-1.923-.017c-1.284-.022-2.555-.071-3.812-.14-25.008-1.418-44.436-12.534-44.436-40.694,0-29.142,46.472-65.914,49.963-68.635l.006,0,.2-.157S211.378,584.762,211.378,615.041Z" transform="translate(-62.098 -279.5)" fill="#6c63ff"/><path d="M172.274,651.26l18.35-20.547-18.4,22.8-.049,2.359c-1.284-.022-2.555-.071-3.812-.14l1.978-30.293-.015-.235.034-.044.186-2.861-18.442-22.859,18.5,20.713.043.607,1.495-22.888-15.788-23.621,15.981,19.6,1.556-47.452.006-.162v.157l-.26,37.419,15.718-14.834-15.782,18.058-.416,20.493,14.675-19.667L173.1,610.551l-.232,11.393,21.306-27.373-21.385,31.349Z" transform="translate(-74.993 -279.5)" fill="#3f3d56"/><ellipse cx="54.198" cy="43.431" rx="54.198" ry="43.431" transform="translate(434.604 267.411)" fill="#2f2e41"/><path d="M0,0,16.183.919l1.646,24.145L1.646,24.145Z" transform="matrix(0.956, -0.294, 0.294, 0.956, 477.688, 349.24)" fill="#2f2e41"/><path d="M0,0,16.183.919l1.646,24.145L1.646,24.145Z" transform="matrix(0.956, -0.294, 0.294, 0.956, 509.166, 341.488)" fill="#2f2e41"/><path d="M13.029-.661C20.477-.238,26.644,1.99,26.8,4.316S21.051,8.185,13.6,7.762-.011,5.111-.169,2.785,5.581-1.084,13.029-.661Z" transform="matrix(0.956, -0.294, 0.294, 0.956, 485.799, 369.387)" fill="#2f2e41"/><path d="M13.029-.661C20.477-.238,26.644,1.99,26.8,4.316S21.051,8.185,13.6,7.762-.011,5.111-.169,2.785,5.581-1.084,13.029-.661Z" transform="matrix(0.956, -0.294, 0.294, 0.956, 517.074, 361.11)" fill="#2f2e41"/><ellipse cx="18.523" cy="14.843" rx="18.523" ry="14.843" transform="translate(467.56 285.166)" fill="#fff"/><ellipse cx="6.174" cy="4.948" rx="6.174" ry="4.948" transform="translate(479.908 295.061)" fill="#3f3d56"/><path d="M655.351,541.209c-9.941-13.982-2.386-32.445,16.873-41.237s42.93-4.585,52.871,9.4-1.64,22.894-20.9,31.686S665.292,555.191,655.351,541.209Z" transform="translate(-231.61 -256.598)" fill="#6c63ff"/><path d="M569.145,609.579c0,27.794-20.618,37.5-46.055,37.5q-.884,0-1.765-.016c-1.179-.02-2.346-.065-3.5-.128-22.956-1.3-40.791-11.506-40.791-37.355,0-26.751,42.659-60.506,45.864-63l.006,0,.185-.144S569.145,581.784,569.145,609.579Z" transform="translate(-177.003 -279.582)" fill="#6c63ff"/><path d="M533.249,642.825l16.844-18.861L533.207,644.9l-.045,2.165c-1.179-.02-2.346-.065-3.5-.128l1.816-27.808-.014-.216.031-.041.171-2.626-16.929-20.983,16.982,19.014.039.558,1.372-21.01-14.493-21.683,14.67,18,1.428-43.559.006-.148v.144l-.238,34.349L548.932,567.3l-14.487,16.576-.382,18.811,13.471-18.053-13.528,20.821-.213,10.458,19.558-25.128-19.631,28.777Z" transform="translate(-188.84 -279.582)" fill="#3f3d56"/><path d="M829.378,626.041c0,30.279-22.461,40.851-50.171,40.851q-.963,0-1.923-.017c-1.284-.022-2.555-.071-3.812-.14-25.008-1.418-44.437-12.534-44.437-40.694,0-29.142,46.472-65.914,49.963-68.635l.006,0,.2-.157S829.378,595.762,829.378,626.041Z" transform="translate(-256.118 -284.452)" fill="#6c63ff"/><path d="M790.274,662.26l18.35-20.547-18.4,22.8-.049,2.359c-1.284-.022-2.555-.071-3.812-.14l1.978-30.293-.015-.235.034-.044.186-2.861-18.442-22.859,18.5,20.713.043.607,1.495-22.888-15.788-23.621,15.981,19.6,1.556-47.452.006-.162v.157l-.26,37.419,15.718-14.834-15.782,18.058-.416,20.493,14.676-19.667L791.1,621.551l-.232,11.393,21.306-27.373-21.385,31.349Z" transform="translate(-269.013 -284.452)" fill="#3f3d56"/><path d="M3.841-.319C7.778.042,11.9,12.025,13.053,26.445S11.947,52.263,8.01,51.9-.051,39.557-1.2,25.137-.1-.681,3.841-.319Z" transform="translate(441.918 321.837) rotate(-64.626)" fill="#2f2e41"/><path d="M3.976-.3c3.894.322,7.883,12.383,8.91,26.938s-1.3,26.093-5.192,25.77S-.19,40.029-1.216,25.474.081-.619,3.976-.3Z" transform="translate(23.598 320.507) rotate(-68.159)" fill="#2f2e41"/></g></svg>