<svg xmlns="http://www.w3.org/2000/svg" xmlns:xlink="http://www.w3.org/1999/xlink" width="1247.479" height="1399" viewBox="0 0 1247.479 1399"><defs><filter id="a" x="0" y="0" width="1247.479" height="1399" filterUnits="userSpaceOnUse"><feOffset dy="14" input="SourceAlpha"/><feGaussianBlur stdDeviation="20.5" result="b"/><feFlood flood-opacity="0.161"/><feComposite operator="in" in2="b"/><feComposite in="SourceGraphic"/></filter><filter id="c" x="58.091" y="47.5" width="1168.145" height="1310.224" filterUnits="userSpaceOnUse"><feOffset dx="3" dy="40" input="SourceAlpha"/><feGaussianBlur stdDeviation="12" result="d"/><feFlood flood-opacity="0.161"/><feComposite operator="in" in2="d"/><feComposite in="SourceGraphic"/></filter></defs><g transform="translate(-734.021 47.5)"><g transform="matrix(1, 0, 0, 1, 734.02, -47.5)" filter="url(#a)"><path d="M910.025-92.826C762.374,185.013,760.431,137.678,832.314,259.1s-124.338,214.039,0,281.955,180.679-47.335,159.308,74.09-9.714,172.877,147.651,279.9,347.758,94.671,349.7,183.168,421.583,104.961,421.583,104.961v-1276Z" transform="translate(-724.58 140.33)" fill="#adce74" opacity="0.65"/></g><g transform="matrix(1, 0, 0, 1, 734.02, -47.5)" filter="url(#c)"><path d="M1054.843-114.337S800.219,57,898.531,193.551s111.719,172.261,109.484,245.787,317.281,96.634,192.156,189.067-116.188,115.541,64.8,197.47c98.818,44.733,239.88,114.118,325.875,183.787,71.091,57.595,84.357,122.523,185.8,108.217,223.438-31.511,194.2-52.217,194.2-52.217v-1180Z" transform="translate(-784.86 161.84)" fill="#61b15a" opacity="0.64"/></g><g transform="translate(1086.74 153.001)"><path d="M769.658,696.851h-2V478a5.98,5.98,0,0,0-2.213-4.653l1.264-1.551a7.973,7.973,0,0,1,2.949,6.2Z" transform="translate(-209.865 -71.612)" fill="#3f3d56"/><path d="M565.922,135.23a17.536,17.536,0,0,1,1.15,3.68C566.512,136.98,566.072,135.67,565.922,135.23Z" transform="translate(-197.153 -111.997)" fill="#3f3d56"/><path d="M583.662,196.37s0,1.38-1.49,6.36Z" transform="translate(-198.187 -111.997)" fill="#3f3d56"/><path d="M725.924,422.191c-36.659,21.727-84.616,40.486-98.979,45.922,10.952-3.243,42.83-7.61,92.222,27.428,62.059,44.015,128.415,14.668,128.415,14.668s-14.746,32.145-46.083,34.233-113.054-56.584-140.7-39.818-40.556-4.2-51.62,37.73S577.851,698.839,601.2,763.117l23.34,64.268H491.828s47.928-145.313,21.5-234.731c-14.792-50.077-35.56-86.344-43.305-104.775-3.887-9.231-4.5-13.979.531-13.746,2.862.138,7.55,1.887,14.513,5.342,0,0-31.952-35.632-42.392-35.632s-59.608-5.585-75.574-24.45c0,0-22.734-18.165-63.289,26.549s-30.722,44.714-66.971,41.217c-35.681-3.444-63.634-23.126-64.5-23.74,1.035.477,42.709,19.416,68.183,9.772,25.81-9.782,47.928-46.813,70.662-59.382s36.249-29.347,66.971-11.181l-20.245-54.274-5.546-14.869-.009-.021s-6.767-102-19.667-108.982-4.912-25.15-28.876-28.647c0,0,29.492-4.2,35.019,18.865s43.632,147.412,43.632,147.412,23.34,53.087,49.15,40.517-9.834-83.133-9.834-83.133l-44.237-23.062s33.183-1.4,53.456,20.264,21.5,91.516,21.5,91.516,51,8.383,63.289,39.828c0,0,7.988-27.948-7.373-44.714-3.84-4.2-7.876-11.489-11.763-20.063a198.713,198.713,0,0,1-15.231-106.746c2.284-17.869,3.691-35.345,1.184-39.468-5.527-9.083-28.876-64.968-30.722-79.646s1.846-45.4,1.846-45.4.615,37.719,7.988,49.6,28.261,70.564,28.261,70.564,0,74.05,17.207,110.381,50.38,76.848,48.544,103.4V461.31s36.864-39.818,34.4-53.1-5.527-44.714-28.876-63.569-38.71-48.911-22.119-92.226c9.33-24.365,13.413-37.454,15.2-44.248l-9.675,47.046s-6.143,48.2,11.064,64.968c.047.042.084.085.13.127,17.179,16.788,39.8,47.385,39.8,47.385l-.065-1.346L590.752,267.1l1.063,2.65,7.662,19.1,7.252,18.07s34.4-50.3,74.959-67.066S747.428,164.4,747.428,164.4l34.413-30.746L753.57,172.082s-8.6,45.4-57.138,77.548-79.871,79.636-81.717,108.982-3.691,55.2-3.691,55.2,90.935-3.5,111.209-48.911,36.874-47.5,36.874-47.5l-11.679,39.118-12.9,33.533s52.841,1.4,80.487,37.03,96.463,46.113,96.463,46.113l-38.7,11.87s-36.874-13.969-71.893-39.818S769.546,396.342,725.924,422.191Z" transform="translate(-172.342 -111.997)" fill="#3f3d56"/><path d="M787.272,314.74c-4.17,18.46-9.08,36.29-15.98,49.88-21.75,42.85-119.31,46.15-119.31,46.15s.46-5.66,1.16-14.59c24.77-2.04,92.48-10.75,110.15-45.56,1.62-3.18,3.12-6.6,4.54-10.2Z" transform="translate(-208.211 -97.88)" opacity="0.1"/><path d="M635.5,367.26s-24.39-29.01-42.84-44.83c-4.05-3.46-6.89-8.36-8.86-13.88-.16-.44-.31-.89-.46-1.34.43.42.86.83,1.32,1.22,16.15,13.85,36.86,37.81,41.77,43.56.69.82,1.07,1.27,1.07,1.27l-5.13-92.42,8.22,18.02Z" transform="translate(-199.896 -101.444)" opacity="0.1"/><path d="M649.621,284.027c-.144,16.23-2.25,25.883-2.25,25.883s36.9-47.441,80.393-63.271c2.571-1.626,5.178-3.227,7.848-4.782,52.076-30.323,61.3-73.17,61.3-73.17l30.323-36.255-36.914,29s-27.027,55.372-70.533,71.192C690.135,243.412,663.547,268.893,649.621,284.027Z" transform="translate(-210.21 -111.997)" opacity="0.1"/><path d="M592.658,441.088v14.5s39.551-37.574,36.914-50.1c-2.016-9.578-4.431-29.177-16.653-45.83,5.509,12.585,7.186,24.861,8.653,31.83,1.891,8.981-17.911,30.842-29.268,42.493A30.057,30.057,0,0,1,592.658,441.088Z" transform="translate(-199.989 -94.754)" opacity="0.1"/><path d="M539.6,341.567c.313.668.636,1.326.979,1.961,10.108,18.773,25.348,38.728,36.75,57.058C568.117,382.434,552.08,361.676,539.6,341.567Z" transform="translate(-196.529 -96.97)" opacity="0.1"/><path d="M760,473.89c-21.685-13.526-40.219-20.825-55.36-24.523-15.882,5.978-28.954,10.435-35.531,12.624,11.8-3.054,45.972-7.11,98.891,25.9,41.521,25.9,84.833,24.878,111.556,20.441a69.067,69.067,0,0,0,18.214-20.6S826.579,515.419,760,473.89Z" transform="translate(-215.027 -89.828)" opacity="0.1"/><path d="M571.74,313.5c-5.316-13.025-6.192-28.523-.085-46.683a142.466,142.466,0,0,1,1.137-19.69l10.38-44.4c-1.914,6.4-6.292,18.756-16.312,41.764C554.175,273.622,558.909,296.383,571.74,313.5Z" transform="translate(-197.405 -111.997)" opacity="0.1"/><path d="M862.834,409.29c-20.572-23.315-54.136-31.092-72.782-33.671l-5.571,12.735s56.69,1.318,86.353,34.937c16.45,18.643,46.477,29.985,69.968,36.394l25.524-6.887S892.5,442.908,862.834,409.29Z" transform="translate(-226.187 -94.011)" opacity="0.1"/><path d="M459.5,400.218c27.686-11.865-10.547-78.443-10.547-78.443l-1.046-.479c9.532,20.111,23.355,56.453,3.593,64.922-18.492,7.925-35.806-11.792-45.267-25.762l.532,1.529S431.816,412.084,459.5,400.218Z" transform="translate(-188.244 -97.797)" opacity="0.1"/><path d="M549.811,443.065s8.342-25.715-7.33-41.591c3.843,13.678-.67,27.591-.67,27.591-10.2-22.947-45.242-32.874-60.592-36.194.6,7.64.7,12.621.7,12.621S536.627,413.4,549.811,443.065Z" transform="translate(-193.542 -93.872)" opacity="0.1"/><path d="M583.172,202.729c1.485-4.97,1.486-6.356,1.486-6.356Z" transform="translate(-198.25 -111.997)" opacity="0.1"/><path d="M254.1,466.922c.133-.043.268-.082.4-.126,27.686-9.229,51.416-44.165,75.806-56.031s38.892-27.686,71.851-10.547c0,0-5.766-23.6-16.94-39.109a153.78,153.78,0,0,1,8.94,25.109c-32.959-17.139-47.461-1.318-71.851,10.547s-48.121,46.8-75.806,56.031-73.17-9.229-73.17-9.229,30.322,19.116,69.214,22.412C246.99,466.357,250.786,466.689,254.1,466.922Z" transform="translate(-172.342 -94.353)" opacity="0.1"/><path d="M374.472,334.96s-1.08.02-3.04.05l-5.95-14.03c.65-.01.99-.02.99-.02s-4.58-60.7-13.4-88.99c.11.05.2.11.3.16C367.212,238.72,374.472,334.96,374.472,334.96Z" transform="translate(-184.012 -103.541)" opacity="0.1"/><path d="M528.918,787C541,749.977,570.043,647.592,547.174,579.517c-9.876-29.4-19.03-48.146-26.769-60.105,5.787,11.321,12.115,26.3,18.769,46.105C567.519,649.892,516.1,787,516.1,787Z" transform="translate(-195.033 -71.612)" opacity="0.1"/><path d="M516.852,472.73a73.3,73.3,0,0,0-25.14-6.07c-4.17-8.71-4.83-13.19.57-12.97,1.5.27,3.01.59,4.51.96C507.392,463.45,516.852,472.73,516.852,472.73Z" transform="translate(-192.924 -90.993)" opacity="0.1"/><path d="M338.4,211.727a17.246,17.246,0,0,0,2.711,3.466,19.452,19.452,0,0,0-2.711-3.466Z" transform="translate(-172.342 -111.997)" opacity="0.1"/><path d="M458.843,319.139a32.087,32.087,0,0,1,2.858,3.081c-2.888-6.942-6.453-12.944-10.858-17.081-21.753-20.435-57.349-19.116-57.349-19.116l44.641,20.461a63.749,63.749,0,0,1,20.708,12.656Z" transform="translate(-187.471 -101.013)" opacity="0.1"/><path d="M506.215,229.991c2.69,3.886,1.179,20.376-1.277,37.241a167.2,167.2,0,0,0,16.346,100.714A117.3,117.3,0,0,0,528.307,380a167.362,167.362,0,0,1-15.37-98.771c2.456-16.865,3.967-33.355,1.277-37.241-5.933-8.569-30.982-61.3-32.959-75.147a95.929,95.929,0,0,1-.413-16.175c-5.121-14.529-5.61-40.672-5.61-40.672s-3.955,29-1.978,42.847S500.282,221.422,506.215,229.991Z" transform="translate(-192.565 -111.997)" opacity="0.1"/><path d="M568.056,138.861a18.864,18.864,0,0,0-1.2-3.793S567.366,136.491,568.056,138.861Z" transform="translate(-197.213 -111.997)" opacity="0.1"/><path d="M335.229,205.25c5.81.711,12.492,2.494,17.59,6.628-.333-1.125-.623-2.133-.854-2.98-5.933-21.753-37.574-17.8-37.574-17.8C328.691,192.933,332.384,199.049,335.229,205.25Z" transform="translate(-181.705 -111.997)" opacity="0.1"/><path d="M956.856,753.135c-9.831,15.076-7.137,34.251-7.137,34.251s18.633-5.268,28.464-20.345,7.137-34.251,7.137-34.251S966.687,738.059,956.856,753.135Z" transform="translate(-226.187 -71.612)" fill="#3f3d56"/><path d="M964.241,755.8c-.777,17.982-14.125,32.009-14.125,32.009S938.028,772.682,938.8,754.7s14.125-32.009,14.125-32.009S965.018,737.819,964.241,755.8Z" transform="translate(-226.187 -71.612)" fill="#6c63ff"/><path d="M791.088,642.007s11.312-11.867,15.942-9.48-13.312,13-13.312,13Z" transform="translate(-212.07 -80.294)" fill="#ffb9b9"/><path d="M791.088,642.007s11.312-11.867,15.942-9.48-13.312,13-13.312,13Z" transform="translate(-212.07 -80.294)" opacity="0.1"/><path d="M756.574,616.106s-4.158,7.453-3.07,15.488,11.039,33.817,14.422,33.359,28.443-18.924,28.443-18.924l-4.78-6.674-18.307,11.092S770.494,610.776,756.574,616.106Z" transform="translate(-210.855 -79.541)" fill="#d0cde1"/><path d="M824.456,634.25l-28.539,15.676a1.359,1.359,0,0,1-2-.589l-6.991-14.614a1.824,1.824,0,0,1,.935-2.191l23.695-12.213a1.383,1.383,0,0,1,1.813.347l11.835,11.151a1.758,1.758,0,0,1-.749,2.433Z" transform="translate(-212.855 -80.23)" fill="#2f2e41"/><path d="M650.209,520.094l-26.755,15.293-7.12-12.832,22.952-12.482Z" transform="translate(-40.4 31.658)" fill="#6c63ff"/><ellipse cx="0.394" cy="0.336" rx="0.394" ry="0.336" transform="translate(587.477 546.359) rotate(-50.158)" fill="#f2f2f2"/><ellipse cx="0.263" cy="0.224" rx="0.263" ry="0.224" transform="translate(596.961 560.238) rotate(-50.158)" fill="#f2f2f2"/><path d="M756.574,616.106s-4.158,7.453-3.07,15.488,11.039,33.817,14.422,33.359,28.443-18.924,28.443-18.924l-4.78-6.674-18.307,11.092S770.494,610.776,756.574,616.106Z" transform="translate(-210.855 -79.541)" opacity="0.1"/><path d="M783.44,644.275s12.8-10.242,17.07-7.255-14.936,11.1-14.936,11.1Z" transform="translate(-211.625 -80.115)" fill="#ffb9b9"/><circle cx="12.376" cy="12.376" r="12.376" transform="translate(543.944 495.492)" fill="#ffb9b9"/><path d="M809.045,677.134s13.229,1.707,12.8,9.815-10.242,41.821-10.242,41.821L810.752,742s.854,22.191-1.707,21.764-8.535-15.789-8.535-15.789-7.255-4.694-3.841-8.962,5.974-3.841,5.121-8.535-.427-24.324,2.134-30.3,4.052-9.27,4.052-9.27l-8.32-.546Z" transform="translate(-212.823 -71.612)" fill="#ffb9b9"/><path d="M809.045,677.134s13.229,1.707,12.8,9.815-10.242,41.821-10.242,41.821L810.752,742s.854,22.191-1.707,21.764-8.535-15.789-8.535-15.789-7.255-4.694-3.841-8.962,5.974-3.841,5.121-8.535-.427-24.324,2.134-30.3,4.052-9.27,4.052-9.27l-8.32-.546Z" transform="translate(-212.823 -71.612)" opacity="0.1"/><path d="M809.9,679.268s12.8,2.987,14.083,11.522,7.681,33.713,7.681,33.713l6.828,15.789s10.669,19.2,5.974,18.777-11.1-9.815-13.229-9.815-8.535-2.56-8.108-4.267,3.414-6.828,3.414-6.828l-10.325-17.985a43.683,43.683,0,0,1-4.478-11.083c-1.061-4.212-2.267-9.372-2.267-11.046,0-2.987-8.535-4.267-8.535-4.267Z" transform="translate(-214.097 -71.612)" fill="#ffb9b9"/><path d="M768.077,651.956l5.974,17.07s9.388,2.56,16.216,4.694,19.63-.854,20.911,4.267-2.56,14.083-6.4,16.216-5.974,4.267-18.35.854-41.821-4.267-41.821-4.267a21.393,21.393,0,0,1-9.388,2.987c-5.548.427-6.828.854-8.535-.427s.853-1.28,1.707-4.694,1.28-2.134,5.121-5.974,6.828-15.363,8.962-19.2,3.414-11.522,3.414-11.522Z" transform="translate(-211.066 -71.612)" fill="#2f2e41"/><path d="M767.224,601.174a12.5,12.5,0,0,0-5.121,9.815c0,6.4-12.8-6.828-12.8-6.828s6.828-8.535,6.828-11.1S767.224,601.174,767.224,601.174Z" transform="translate(-209.441 -82.403)" fill="#ffb9b9"/><path d="M751.007,598.613s7.681,2.987,9.388,7.255S768.5,619.1,768.5,619.1s8.962,9.388,5.974,19.63-5.548,12.8-5.548,14.509-4.267,4.694-7.681,4.267-16.216-2.134-17.07-3.841-5.974-26.031-2.56-34.993a207.057,207.057,0,0,1,9.388-20.057Z" transform="translate(-209.616 -80.15)" fill="#d0cde1"/><path d="M769.96,591.495c2.769.657,5.487-1.107,7.756-2.857,1.289-.993,2.707-2.41,2.312-4.009-.35-1.418-2.021-2.222-2.264-3.664-.169-1,.417-1.976.464-2.992a4.226,4.226,0,0,0-2.484-3.624c-1.349-.727-2.88-1.029-4.266-1.68-2.117-.993-3.876-2.783-6.137-3.356-3.088-.783-6.233.884-9.408,1.1-1.922.131-3.868-.275-5.768.041a8.234,8.234,0,0,0-6.6,7.773c-.024,1.358.247,2.874-.564,3.951a5.977,5.977,0,0,1-1.086.983c-2.824,2.283-4.106,6.1-4.252,9.774-.072,1.809.307,3.958,1.912,4.727a7.088,7.088,0,0,0,2.675.372,2.794,2.794,0,0,1,2.362,1.128c.731,1.29-.364,3.194.592,4.32.718.845,2.119.565,2.958-.156s1.362-1.756,2.157-2.526c1.547-1.5,3.841-1.77,5.962-2a3.024,3.024,0,0,0,1.749-.573,2.7,2.7,0,0,0,.717-1.47,9.115,9.115,0,0,0,.011-3.861,2.146,2.146,0,0,1-.049-1.222,1.735,1.735,0,0,1,.626-.7c1.314-.987,3.616-2.424,5.324-2.153C766.557,589.124,768.048,591.042,769.96,591.495Z" transform="translate(-209.789 -83.202)" fill="#2f2e41"/><path d="M752.714,613.976s-5.121,6.828-5.121,14.936,6.4,34.993,9.815,34.993,30.726-14.936,30.726-14.936l-3.841-7.255-19.63,8.535S767.224,610.562,752.714,613.976Z" transform="translate(-210.358 -79.619)" fill="#d0cde1"/><rect width="98" height="19" transform="translate(501.9 619.391)" fill="#6c63ff"/><path d="M761.658,711a8.009,8.009,0,0,1-8-8V478a8,8,0,0,1,13.051-6.2l-1.264,1.551A6,6,0,0,0,755.658,478V703a6.006,6.006,0,0,0,6,6Z" transform="translate(-209.505 -71.612)" fill="#3f3d56"/><rect width="752.155" height="2" transform="translate(49.316 714.391)" fill="#3f3d56"/><ellipse cx="1" cy="3" rx="1" ry="3" transform="translate(533.574 497.506) rotate(-38.768)" fill="#6c63ff"/><path d="M660.856,753.135c-9.831,15.076-7.137,34.251-7.137,34.251s18.633-5.268,28.464-20.345,7.137-34.251,7.137-34.251S670.687,738.059,660.856,753.135Z" transform="translate(-203.966 -71.612)" fill="#3f3d56"/><path d="M668.241,755.8c-.777,17.982-14.125,32.009-14.125,32.009S642.028,772.682,642.8,754.7s14.125-32.009,14.125-32.009S669.018,737.819,668.241,755.8Z" transform="translate(-202.867 -71.612)" fill="#6c63ff"/><path d="M499.067,758.838c4.7,17.374,20.8,28.134,20.8,28.134s8.478-17.409,3.778-34.782-20.8-28.134-20.8-28.134S494.367,741.464,499.067,758.838Z" transform="translate(-193.499 -71.612)" fill="#3f3d56"/><path d="M505.974,755.1c12.9,12.555,14.472,31.854,14.472,31.854s-19.335-1.056-32.231-13.61-14.472-31.854-14.472-31.854S493.077,742.55,505.974,755.1Z" transform="translate(-192.412 -71.612)" fill="#6c63ff"/><path d="M463.228,284.044c-1.121,17.963-14.735,31.733-14.735,31.733s-11.8-15.355-10.675-33.319,14.735-31.733,14.735-31.733S464.349,266.08,463.228,284.044Z" transform="translate(-189.565 -102.827)" fill="#6c63ff"/><path d="M321.312,170.482c15.225,9.6,20.778,28.149,20.778,28.149s-19.132,2.987-34.357-6.612-20.778-28.149-20.778-28.149S306.087,160.883,321.312,170.482Z" transform="translate(-172.342 -111.997)" fill="#6c63ff"/><path d="M287.312,389.482c15.225,9.6,20.778,28.149,20.778,28.149s-19.132,2.987-34.357-6.612-20.778-28.149-20.778-28.149S272.087,379.883,287.312,389.482Z" transform="translate(-172.342 -94.942)" fill="#6c63ff"/><path d="M596.832,202.5c-4.591,17.4-20.622,28.263-20.622,28.263s-8.587-17.355-4-34.758,20.622-28.263,20.622-28.263S601.423,185.1,596.832,202.5Z" transform="translate(-198.258 -111.997)" fill="#6c63ff"/><path d="M741.667,216.068c-5.4,17.17-21.916,27.273-21.916,27.273s-7.77-17.736-2.373-34.907,21.916-27.273,21.916-27.273S747.064,198.9,741.667,216.068Z" transform="translate(-207.695 -111.997)" fill="#6c63ff"/><path d="M898.212,407.165c-9.775,15.112-28.389,20.449-28.389,20.449s-2.764-19.165,7.011-34.277,28.388-20.449,28.388-20.449S907.987,392.053,898.212,407.165Z" transform="translate(-226.187 -95.038)" fill="#6c63ff"/><path d="M866,206" transform="translate(-226.187 -111.997)" fill="#3f3d56"/></g></g></svg>